<?xml version="1.0" encoding="utf-8"?>
<!-- Generator: Adobe Illustrator 16.0.0, SVG Export Plug-In . SVG Version: 6.00 Build 0)  -->
<!DOCTYPE svg PUBLIC "-//W3C//DTD SVG 1.1//EN" "http://www.w3.org/Graphics/SVG/1.1/DTD/svg11.dtd">
<svg version="1.1" id="Layer_1" xmlns="http://www.w3.org/2000/svg" xmlns:xlink="http://www.w3.org/1999/xlink" x="0px" y="0px"
	 width="240px" height="240px" viewBox="0 0 240 240" enable-background="new 0 0 240 240" xml:space="preserve">
<rect x="141.606" y="187.071" width="98.394" height="52.929"/>
<path d="M190.803,126c-27.17,0-49.197,23.697-49.197,52.929H240C240,149.697,217.973,126,190.803,126z"/>
<rect x="183.136" width="15.333" height="178.929"/>
<path d="M60.667,119.464c-33.137,0-60,26.864-60,60s26.863,60,60,60s60-26.863,60-60S93.804,119.464,60.667,119.464z
	 M60.667,226.465c-25.958,0-47-21.043-47-47s21.042-47,47-47s47,21.043,47,47S86.624,226.465,60.667,226.465z"/>
<circle cx="60.667" cy="179.465" r="41.679"/>
<rect width="120" height="108"/>
<path d="M120,18.869c-19.402,0-35.131,15.729-35.131,35.131S100.598,89.131,120,89.131S155.131,73.402,155.131,54
	S139.402,18.869,120,18.869z M120,76.252c-12.29,0-22.252-9.962-22.252-22.252S107.71,31.748,120,31.748S142.253,41.71,142.253,54
	S132.29,76.252,120,76.252z"/>
</svg>
