<?xml version="1.0" encoding="utf-8"?>
<!-- Generator: Adobe Illustrator 16.0.0, SVG Export Plug-In . SVG Version: 6.00 Build 0)  -->
<!DOCTYPE svg PUBLIC "-//W3C//DTD SVG 1.1//EN" "http://www.w3.org/Graphics/SVG/1.1/DTD/svg11.dtd">
<svg version="1.1" id="Layer_1" xmlns="http://www.w3.org/2000/svg" xmlns:xlink="http://www.w3.org/1999/xlink" x="0px" y="0px"
	 width="240px" height="240px" viewBox="0 0 240 240" enable-background="new 0 0 240 240" xml:space="preserve">
<path d="M219.5,32.5V0h-23v32.5h-65V0h-23v32.5h-65V0h-23v32.5H0V240h240V32.5H219.5z M222.5,222.5h-205V98h205V222.5z"/>
<g>
	<path d="M89.291,186.155c3.969,2.059,13.083,5.881,22.198,5.881c11.613,0,17.493-5.586,17.493-12.789
		c0-9.408-9.408-13.671-19.257-13.671h-9.114v-16.023h8.672c7.498-0.146,17.053-2.939,17.053-11.024
		c0-5.733-4.704-9.996-14.112-9.996c-7.792,0-16.023,3.381-19.992,5.732l-4.558-16.17c5.733-3.675,17.2-7.203,29.547-7.203
		c20.433,0,31.751,10.732,31.751,23.814c0,10.144-5.732,18.081-17.493,22.197v0.293c11.466,2.059,20.728,10.731,20.728,23.227
		c0,16.905-14.847,29.253-39.102,29.253c-12.348,0-22.785-3.233-28.371-6.762L89.291,186.155z"/>
</g>
</svg>
