<?xml version="1.0" encoding="utf-8"?>
<!-- Generator: Adobe Illustrator 16.0.0, SVG Export Plug-In . SVG Version: 6.00 Build 0)  -->
<!DOCTYPE svg PUBLIC "-//W3C//DTD SVG 1.1//EN" "http://www.w3.org/Graphics/SVG/1.1/DTD/svg11.dtd">
<svg version="1.1" id="Layer_1" xmlns="http://www.w3.org/2000/svg" xmlns:xlink="http://www.w3.org/1999/xlink" x="0px" y="0px"
	 width="240px" height="240px" viewBox="0 0 240 240" enable-background="new 0 0 240 240" xml:space="preserve">
<g>
	<rect x="141.605" y="187.07" width="98.395" height="52.93"/>
	<path d="M141.605,178.93h41.53h15.333H240c0-26.426-18.003-48.325-41.531-52.286V0h-15.333v126.644
		C159.607,130.605,141.605,152.504,141.605,178.93z"/>
	<path d="M60.667,119.464c-33.137,0-60,26.864-60,60s26.863,60,60,60s60-26.862,60-60
		C120.667,146.327,93.804,119.464,60.667,119.464z M60.667,226.465c-25.958,0-47-21.043-47-47s21.042-47,47-47s47,21.043,47,47
		S86.624,226.465,60.667,226.465z"/>
	<circle cx="60.667" cy="179.465" r="41.679"/>
	<path d="M120,89.131c19.402,0,35.131-15.729,35.131-35.131S139.402,18.869,120,18.869V0H0v108h120V89.131z M142.253,54
		c0,12.29-9.963,22.252-22.253,22.252V31.748C132.29,31.748,142.253,41.71,142.253,54z"/>
</g>
</svg>
